PathFileType	4	(X/Y/Z)	D:\TRACE\v60_Jaco2_6-2-23\JustArmDRS_Motion3_2-v60.trc
DataRate	CameraRate	NumFrames	NumMarkers	Units	OrigDataRate	OrigDataStartFrame	OrigNumFrames
100.00	100.00	      38	9	mm	100.00	1751	      7000
Frame#	Time	front left toe			Front right toe			aft left toe			aft right toe			Arm			FL body			FR body			AL Body			AR Body			
		X1	Y1	Z1	X2	Y2	Z2	X3	Y3	Z3	X4	Y4	Z4	X5	Y5	Z5	X6	Y6	Z6	X7	Y7	Z7	X8	Y8	Z8	X9	Y9	Z9	

1751	17.500	-195.25070	2.28566	-244.06685	203.36993	5.32815	-178.48685	-283.59396	40.80313	393.42151	125.12132	39.92514	408.55362	5.65952	1142.72046	-700.65765	-60.91528	564.08124	-359.04498	96.56565	564.52490	-337.84167	-179.59088	607.10968	576.97308	-28.80007	599.11621	597.27405	
1752	17.510	-194.77240	1.96527	-244.35718	203.94832	5.24202	-178.55949	-283.14621	41.44594	393.26917	125.53127	40.29482	408.09470	6.29672	1141.84753	-701.74805	-60.75578	563.41772	-359.49716	96.04722	564.10175	-338.05978	-179.23779	608.09613	576.71783	-28.74685	599.81042	596.91187	
1753	17.520	-194.14851	1.40583	-244.62238	204.55565	4.86774	-179.18617	-284.15402	42.67910	392.93021	125.43853	40.57665	407.72400	6.75921	1140.84814	-702.70258	-60.49786	562.87964	-359.85855	96.42310	563.34399	-338.25641	-178.71327	608.57391	576.32831	-28.59238	600.73730	596.58105	
1754	17.530	-193.96446	1.05522	-244.77269	204.49669	4.20891	-179.68050	-283.25769	43.13752	392.79648	125.71371	41.54005	407.29211	6.36657	1139.67712	-703.95605	-59.82207	561.95251	-359.78683	96.88494	562.83490	-338.63980	-178.01822	609.26672	575.92322	-28.32605	601.37305	596.40271	
1755	17.540	-193.35030	0.67711	-245.06258	205.16194	4.14690	-179.54854	-282.74417	43.85387	392.53955	126.77792	42.22852	407.16556	6.63932	1138.61096	-705.13165	-59.87483	561.58966	-360.52124	97.22085	562.36749	-338.89725	-177.86696	609.94305	575.69336	-27.89827	602.04816	596.06415	
1756	17.550	-192.91136	0.30644	-245.30888	205.68440	3.95659	-179.51329	-282.17941	44.23643	392.25391	127.34513	42.52180	407.08344	6.97002	1137.27673	-706.44574	-59.52471	561.10229	-360.83362	98.12263	561.63708	-339.38516	-177.67599	610.60760	575.38647	-27.35088	602.86652	595.39136	
1757	17.560	-192.08371	-0.04289	-245.54655	206.64635	3.73551	-179.36411	-281.53302	44.91187	391.97534	127.99610	42.95055	406.85010	8.05795	1136.02051	-707.43884	-59.14759	560.37683	-361.16736	97.84946	561.18109	-339.69150	-177.45993	611.30249	574.85089	-27.02465	603.32159	594.99188	
1758	17.570	-191.62572	-0.42137	-245.62160	207.45636	3.18518	-180.02402	-281.75278	45.66885	391.28033	128.27943	43.50485	406.61148	7.80768	1134.80420	-708.69977	-58.61097	559.67419	-361.35788	98.31641	560.74927	-340.13644	-177.03938	611.88135	574.14435	-26.60740	604.34357	594.68677	
1759	17.580	-191.13293	-0.95198	-245.63739	207.68140	2.80363	-180.53600	-280.52994	46.18357	390.91025	129.29662	44.39153	406.26556	8.14429	1133.73291	-709.96729	-58.11676	559.10358	-361.68497	99.30489	559.75208	-340.44196	-176.34154	612.64337	573.83099	-26.24478	604.97943	594.48956	
1760	17.590	-190.24260	-1.45899	-245.87036	208.44690	2.74356	-180.44293	-279.48123	46.37439	391.32050	130.06303	44.83252	406.07886	8.62396	1132.53723	-710.95715	-57.68259	558.44110	-362.05627	99.41543	559.36426	-340.56424	-175.87299	613.33337	573.59924	-25.69087	605.81702	593.98901	
1761	17.600	-189.66379	-1.88815	-245.94839	208.78107	2.49598	-180.46385	-279.55374	47.60154	390.21524	130.62213	45.31533	405.75531	9.17077	1131.38599	-712.11426	-57.19918	557.77081	-362.46231	100.22442	558.74664	-341.02216	-175.45561	614.20953	573.30890	-25.27733	606.57928	593.67651	
1762	17.610	-189.05780	-2.03195	-246.13194	209.56403	1.81423	-180.55260	-278.47198	47.60126	390.80496	130.63217	45.69565	405.43292	9.69689	1130.18616	-713.24969	-56.80899	557.22589	-362.75912	100.39545	558.23840	-341.12326	-174.95084	614.73419	572.83594	-25.04512	607.29584	593.25208	
1763	17.620	-188.23965	-2.70218	-246.21008	210.41585	1.53878	-180.94022	-277.71136	48.25859	390.54913	131.70338	46.63841	405.28000	10.03282	1129.17627	-714.36530	-56.14675	556.66248	-363.00482	101.47140	557.63013	-341.58597	-174.66541	615.55023	572.37115	-24.39258	607.92975	592.90802	
1764	17.630	-187.65425	-3.00367	-246.32837	211.00249	1.39538	-181.37863	-277.05182	48.84117	389.73636	132.75375	47.30943	405.29688	10.65618	1128.19824	-715.36371	-55.55125	556.18512	-363.29935	101.37067	557.26630	-341.84641	-174.16718	616.15753	572.27136	-23.85047	608.52319	592.45337	
1765	17.640	-186.79805	-3.49394	-246.53354	211.79016	1.26777	-181.33948	-275.15094	48.32885	390.23816	133.50832	47.79196	404.92047	11.24866	1127.36523	-716.21100	-54.97000	555.69678	-363.60056	102.10092	556.84485	-341.96088	-173.56218	616.49835	571.73029	-23.54870	609.24042	592.00775	
1766	17.650	-186.08267	-3.73776	-246.88988	212.59891	0.80029	-181.31862	-275.82895	49.96318	389.23645	133.52538	47.85835	404.60037	11.98765	1126.59460	-717.22607	-54.38751	555.18182	-363.88232	102.90745	556.06171	-342.42883	-173.11533	617.18182	571.03333	-23.19911	609.70264	591.76483	
1767	17.660	-185.55092	-4.31152	-247.08849	213.21820	0.31439	-181.52583	-274.98978	50.10347	389.61914	134.99382	48.64272	404.45197	12.70160	1125.71936	-718.06439	-53.61876	554.47363	-364.22180	103.58116	555.70416	-342.97556	-172.86649	617.79193	570.67004	-22.42917	610.39862	591.19501	
1768	17.670	-184.61087	-4.68721	-247.30774	213.78020	0.18477	-181.80548	-274.02371	50.91862	388.77283	135.52596	49.01183	404.01590	13.20600	1124.84497	-719.15088	-52.99274	553.83722	-364.63480	103.93279	555.30859	-343.10336	-172.27948	618.47058	570.49957	-21.66298	611.02472	590.82922	
1769	17.680	-183.91814	-4.81999	-247.53317	214.75620	-0.02148	-182.07513	-273.47519	51.29474	388.56802	136.29424	49.54760	403.91586	13.76905	1123.87769	-720.34241	-52.45079	553.26843	-364.99634	104.73524	554.45477	-343.28922	-171.26338	619.07629	569.79681	-21.38675	611.73151	590.44843	
1770	17.690	-183.22394	-5.38314	-247.54568	215.62019	-0.34211	-182.13048	-272.68085	51.49813	388.97046	136.73778	50.05019	403.90302	14.52504	1122.76941	-721.36084	-51.46819	552.52380	-365.01825	105.71610	553.92188	-343.80734	-171.05775	619.78894	569.47089	-21.02909	612.54022	590.18140	
1771	17.700	-182.34590	-5.75538	-247.71281	216.44046	-0.61791	-182.26323	-272.01587	52.61697	388.07358	138.47549	50.87705	403.81882	15.24721	1121.55566	-722.59076	-50.78288	551.98645	-365.17474	105.87957	553.57776	-343.95261	-170.43362	620.62811	569.21515	-20.34603	613.29425	589.84778	
1772	17.710	-181.53601	-6.23328	-247.60481	217.57690	-0.56414	-181.93257	-269.68857	51.62668	388.56924	138.83841	51.28139	403.26175	16.41485	1120.20520	-723.64673	-50.00792	551.45825	-365.50183	106.60898	552.85931	-344.17712	-169.86819	621.46887	568.67688	-19.62419	614.07733	589.11328	
1773	17.720	-180.31523	-6.63185	-247.94438	218.27676	-0.96064	-182.46068	-269.01593	52.29721	388.37311	139.30655	51.59197	403.11227	17.15369	1119.05688	-724.83521	-49.36189	550.92133	-365.86813	107.43841	552.36102	-344.41983	-169.24599	622.14624	568.04785	-19.15843	614.77094	588.79388	
1774	17.730	-179.86804	-7.05085	-247.71852	218.57962	-1.58342	-183.06892	-269.07724	53.22463	388.25421	140.45639	52.02953	402.92001	17.83498	1117.91516	-725.94446	-48.53575	550.25122	-366.04181	108.60229	551.90228	-344.98080	-168.50470	622.77155	567.84399	-18.55506	615.64752	588.44482	
1775	17.740	-178.78600	-7.28143	-248.16589	219.90419	-1.58674	-182.84065	-268.30676	53.79869	387.89117	141.16821	52.45005	402.41971	18.67432	1116.86096	-726.97070	-47.81875	549.73486	-366.25925	108.77826	551.25677	-345.12610	-168.16608	623.50867	567.37805	-17.80337	616.16229	588.11450	
1776	17.750	-177.81432	-7.59141	-248.40904	220.86287	-1.79263	-182.76984	-267.50897	54.02262	387.88010	141.79549	52.95951	402.26648	19.61321	1115.70215	-728.15973	-47.24128	549.10956	-366.69577	109.63675	550.71796	-345.36716	-166.74065	624.16333	566.76080	-17.01488	617.27698	587.72119	
1777	17.760	-177.00745	-8.04433	-248.35252	221.90417	-2.09424	-182.85805	-266.88669	54.72139	387.50513	143.29636	53.94337	402.34674	20.37236	1114.95410	-728.99200	-46.33298	548.58466	-367.07260	110.70309	550.19281	-345.83096	-166.30603	624.78625	566.56049	-16.46319	617.57874	587.38892	
1778	17.770	-176.12181	-8.40918	-248.61693	222.62390	-2.44000	-183.20090	-265.50525	55.05637	387.26688	144.09134	54.29431	402.18979	21.51141	1113.97839	-730.00977	-45.72497	548.17816	-367.55780	111.55939	549.72632	-346.23618	-165.70486	625.43665	566.30786	-15.46608	618.21271	586.94745	
1779	17.780	-174.90031	-8.62256	-248.83099	223.32111	-2.69297	-183.66751	-264.31516	55.25161	387.20865	144.62994	54.52779	401.78360	22.37414	1113.13855	-730.93256	-45.00814	547.70062	-367.71878	111.80994	549.25641	-346.28537	-164.76778	626.10724	565.78754	-14.47318	618.70789	586.56757	
1780	17.790	-174.44968	-8.85076	-248.80495	224.63170	-2.73454	-183.45497	-263.08240	55.48214	386.90607	146.06879	55.05713	401.73907	23.42682	1112.17310	-731.64178	-44.76048	547.56610	-368.43060	112.47169	548.82251	-346.70477	-163.91335	626.61774	565.41125	-14.04195	619.31696	586.21429	
1781	17.800	-173.33797	-9.38883	-249.15036	225.62326	-2.99875	-183.36263	-262.01175	55.59346	386.91626	146.39229	55.12015	401.28671	24.50033	1111.44958	-732.50134	-43.87203	547.13037	-368.69437	113.82829	548.28711	-347.14740	-163.29752	627.24622	565.37598	-13.09172	619.71039	585.93658	
1782	17.810	-172.33325	-9.18584	-249.27760	226.32060	-3.23861	-183.61311	-261.96524	56.26435	386.67017	147.82346	55.67870	401.06131	25.38007	1110.88721	-733.31049	-42.97269	546.76007	-368.93466	114.56696	547.93939	-347.35117	-162.20981	627.63690	564.68652	-12.11144	620.16962	585.35645	
1783	17.820	-171.38141	-9.61144	-249.28073	227.23322	-3.39547	-184.07521	-260.99951	56.77517	386.48199	148.89651	55.97029	401.11411	26.35478	1110.18579	-734.06616	-42.00288	546.42688	-369.16724	115.07793	547.55743	-347.48270	-161.22896	628.19910	564.25555	-11.25757	620.72662	584.96368	
1784	17.830	-170.33879	-9.98807	-249.39224	228.50632	-3.70485	-184.01054	-259.77246	57.07701	386.28955	149.76193	56.27399	401.04523	27.34338	1109.61194	-734.78033	-40.73528	545.77356	-368.97543	115.79213	547.29065	-347.91135	-160.76712	628.59912	564.04034	-10.35013	621.10010	584.74097	
1785	17.840	-169.27354	-10.28706	-249.54266	229.36203	-4.03606	-183.90869	-258.98166	57.41140	386.17438	151.14520	56.63196	401.02142	28.38784	1109.09070	-735.57117	-39.80239	545.34723	-369.29880	117.31622	546.82312	-348.38455	-159.43320	629.06219	563.52472	-9.43937	621.58203	584.42371	
1786	17.850	-168.35091	-10.51615	-249.43788	230.46715	-4.15791	-184.06461	-257.82147	57.73707	385.82922	151.94466	56.94795	400.70071	29.41219	1108.37463	-736.36877	-38.93751	545.12695	-369.75821	118.22358	546.48267	-348.53625	-158.79614	629.49518	563.09229	-8.63326	622.08167	583.97894	
1787	17.860	-167.26486	-11.01071	-249.35287	231.52620	-4.02008	-184.09657	-256.53784	57.81380	385.84863	152.56461	57.08388	400.56461	30.41426	1107.65076	-737.11871	-37.81372	544.75696	-370.08569	118.71700	546.22766	-348.66217	-158.09244	629.79663	562.81342	-7.78978	622.55255	583.75830	
1788	17.870	-166.22803	-10.71489	-249.95584	232.38388	-4.32070	-184.35744	-255.68256	58.25689	385.63223	154.30132	57.62576	400.55692	31.49105	1107.02222	-737.93787	-36.93330	544.49701	-370.37988	119.82835	545.99469	-348.88596	-156.91571	630.49146	562.42242	-7.14893	623.15771	583.38159	
